<svg xmlns="http://www.w3.org/2000/svg" width="800" height="400" viewBox="0 0 800 400">
 <defs><linearGradient id="screen" x2="1" y2="1"><stop stop-color="#243b56"/><stop offset="1" stop-color="#0f1a2e"/></linearGradient><linearGradient id="link"><stop stop-color="#e87722"/><stop offset="1" stop-color="#f4b07a"/></linearGradient></defs>
 <g fill="none" stroke="url(#link)" stroke-width="4"><path d="M290 189h218" stroke-dasharray="9 9"/><path d="m492 177 16 12-16 12"/></g>
 <circle cx="400" cy="189" r="31" fill="#fdf0e5" stroke="#f4c49c" stroke-width="2"/>
 <g fill="none" stroke="#c2500f" stroke-width="3" stroke-linecap="round"><rect x="389" y="185" width="22" height="19" rx="3"/><path d="M394 185v-7a6 6 0 0 1 12 0v7"/></g>
 <rect x="72" y="91" width="230" height="175" rx="14" fill="#c6d1de"/><rect x="82" y="101" width="210" height="154" rx="8" fill="url(#screen)"/>
 <rect x="104" y="120" width="166" height="111" rx="5" fill="#f8fafc"/><path d="M104 143h166" stroke="#dae2ec" stroke-width="2"/><circle cx="116" cy="132" r="3" fill="#e87722"/><circle cx="128" cy="132" r="3" fill="#b8c5d4"/>
 <path d="M121 162h91m-91 15h127m-127 15h107m-107 15h58" stroke="#b0bfd0" stroke-width="5" stroke-linecap="round"/>
 <path d="M57 266h260l-21 17H77Z" fill="#8c9eaf"/>
 <rect x="516" y="87" width="207" height="164" rx="12" fill="#0f1a2e"/><rect x="527" y="99" width="185" height="140" rx="5" fill="#f8fafc"/>
 <rect x="539" y="112" width="160" height="18" rx="3" fill="#e87722"/>
 <path d="M542 149h82m-82 16h132m-132 16h113m-113 16h92" stroke="#b0bfd0" stroke-width="5" stroke-linecap="round"/>
 <path d="M618 251v25m-33 0h66" stroke="#72879c" stroke-width="7" stroke-linecap="round"/>
 <rect x="733" y="136" width="35" height="141" rx="5" fill="#263d55"/><path d="M742 153h17m-17 12h17" stroke="#91a5b9" stroke-width="3"/><circle cx="751" cy="256" r="4" fill="#e87722"/>
 <g font-family="system-ui,sans-serif" text-anchor="middle"><text x="186" y="326" fill="#273d56" font-size="23" font-weight="600">Your computer</text><text x="400" y="250" fill="#9c4819" font-size="18">Illinois network</text><text x="623" y="326" fill="#273d56" font-size="23" font-weight="600">CEE-ALQADI-20</text><text x="623" y="354" fill="#60748a" font-size="18">Class workstation</text></g>
</svg>
